<?xml version="1.0" standalone="no"?>
<!DOCTYPE svg PUBLIC "-//W3C//DTD SVG 20010904//EN"
 "http://www.w3.org/TR/2001/REC-SVG-20010904/DTD/svg10.dtd">
<svg version="1.0" xmlns="http://www.w3.org/2000/svg"
 width="674.000000pt" height="674.000000pt" viewBox="0 0 674.000000 674.000000"
 preserveAspectRatio="xMidYMid meet">
<metadata>
Created by potrace 1.14, written by Peter Selinger 2001-2017
</metadata>
<g transform="translate(0.000000,674.000000) scale(0.100000,-0.100000)"
fill="#000000" stroke="none">
<path d="M3259 6526 c-2 -2 -47 -7 -99 -11 -140 -11 -215 -19 -249 -29 -9 -3
-38 -7 -65 -11 -27 -3 -53 -8 -56 -10 -4 -2 -20 -7 -37 -9 -16 -3 -72 -17
-124 -31 -52 -14 -104 -28 -116 -30 -24 -6 -153 -50 -188 -65 -11 -4 -36 -14
-55 -22 -144 -60 -200 -85 -232 -105 -21 -13 -41 -23 -44 -23 -17 0 -220 -122
-344 -207 -208 -142 -451 -369 -620 -578 -217 -267 -361 -514 -489 -838 -58
-145 -141 -440 -156 -553 -2 -22 -6 -48 -9 -59 -15 -78 -20 -126 -31 -270 -13
-163 -7 -476 10 -576 2 -13 6 -44 9 -69 10 -85 35 -215 61 -315 15 -55 28
-110 31 -121 9 -46 88 -264 131 -364 48 -111 143 -297 174 -342 11 -14 19 -28
19 -31 0 -13 162 -247 227 -328 163 -203 392 -421 598 -570 78 -57 186 -129
192 -129 3 0 17 -8 31 -19 68 -47 246 -137 402 -204 217 -92 512 -173 735
-203 28 -3 58 -8 67 -9 99 -19 503 -26 650 -12 122 12 294 37 358 52 14 3 36
8 50 11 369 74 826 284 1153 528 303 226 599 543 771 826 15 25 31 52 36 60
60 96 154 281 206 407 66 157 145 411 167 533 3 14 10 52 16 85 23 125 28 159
36 255 4 41 9 86 11 100 5 32 5 374 0 420 -3 19 -7 67 -11 105 -3 39 -8 81
-10 95 -5 31 -25 155 -32 195 -12 74 -76 303 -117 419 -269 763 -839 1399
-1566 1748 -131 63 -345 149 -405 162 -5 2 -41 12 -80 23 -141 43 -334 82
-480 98 -27 3 -66 8 -85 11 -37 7 -435 15 -441 10z"/>
</g>
</svg>
